<mxfile host="app.diagrams.net" modified="2022-02-10T13:01:34.234Z" agent="5.0 (Windows NT 10.0; Win64; x64) AppleWebKit/537.36 (KHTML, like Gecko) Chrome/98.0.4758.87 Safari/537.36" etag="jBgRkkmFNNOy9eaev7dV" version="16.5.4" type="github">
  <diagram id="8Eo1U73nTL0b38TvhoSG" name="Page-1">
    <mxGraphModel dx="1093" dy="614" grid="1" gridSize="10" guides="1" tooltips="1" connect="1" arrows="1" fold="1" page="1" pageScale="1" pageWidth="850" pageHeight="1100" math="0" shadow="0">
      <root>
        <mxCell id="0" />
        <mxCell id="1" parent="0" />
        <mxCell id="87U8tCKJsjDM_NTHOUoC-15" value="User" style="swimlane;fontStyle=1;align=center;verticalAlign=top;childLayout=stackLayout;horizontal=1;startSize=30;horizontalStack=0;resizeParent=1;resizeParentMax=0;resizeLast=0;collapsible=1;marginBottom=0;" vertex="1" parent="1">
          <mxGeometry x="310" y="120" width="230" height="186" as="geometry" />
        </mxCell>
        <mxCell id="87U8tCKJsjDM_NTHOUoC-16" value="- PK id : String" style="text;strokeColor=none;fillColor=none;align=left;verticalAlign=top;spacingLeft=4;spacingRight=4;overflow=hidden;rotatable=0;points=[[0,0.5],[1,0.5]];portConstraint=eastwest;fontStyle=1" vertex="1" parent="87U8tCKJsjDM_NTHOUoC-15">
          <mxGeometry y="30" width="230" height="22" as="geometry" />
        </mxCell>
        <mxCell id="87U8tCKJsjDM_NTHOUoC-17" value="" style="line;strokeWidth=1;fillColor=none;align=left;verticalAlign=middle;spacingTop=-1;spacingLeft=3;spacingRight=3;rotatable=0;labelPosition=right;points=[];portConstraint=eastwest;" vertex="1" parent="87U8tCKJsjDM_NTHOUoC-15">
          <mxGeometry y="52" width="230" height="8" as="geometry" />
        </mxCell>
        <mxCell id="87U8tCKJsjDM_NTHOUoC-18" value="-username : String" style="text;strokeColor=none;fillColor=none;align=left;verticalAlign=top;spacingLeft=4;spacingRight=4;overflow=hidden;rotatable=0;points=[[0,0.5],[1,0.5]];portConstraint=eastwest;labelBorderColor=none;labelBackgroundColor=none;" vertex="1" parent="87U8tCKJsjDM_NTHOUoC-15">
          <mxGeometry y="60" width="230" height="26" as="geometry" />
        </mxCell>
        <mxCell id="87U8tCKJsjDM_NTHOUoC-31" value="" style="line;strokeWidth=1;fillColor=none;align=left;verticalAlign=middle;spacingTop=-1;spacingLeft=3;spacingRight=3;rotatable=0;labelPosition=right;points=[];portConstraint=eastwest;labelBackgroundColor=none;labelBorderColor=none;" vertex="1" parent="87U8tCKJsjDM_NTHOUoC-15">
          <mxGeometry y="86" width="230" height="8" as="geometry" />
        </mxCell>
        <mxCell id="87U8tCKJsjDM_NTHOUoC-28" value="-password :String" style="text;strokeColor=none;fillColor=none;align=left;verticalAlign=top;spacingLeft=4;spacingRight=4;overflow=hidden;rotatable=0;points=[[0,0.5],[1,0.5]];portConstraint=eastwest;labelBorderColor=none;labelBackgroundColor=none;" vertex="1" parent="87U8tCKJsjDM_NTHOUoC-15">
          <mxGeometry y="94" width="230" height="28" as="geometry" />
        </mxCell>
        <mxCell id="87U8tCKJsjDM_NTHOUoC-54" value="" style="line;strokeWidth=1;fillColor=none;align=left;verticalAlign=middle;spacingTop=-1;spacingLeft=3;spacingRight=3;rotatable=0;labelPosition=right;points=[];portConstraint=eastwest;labelBackgroundColor=none;labelBorderColor=none;" vertex="1" parent="87U8tCKJsjDM_NTHOUoC-15">
          <mxGeometry y="122" width="230" height="8" as="geometry" />
        </mxCell>
        <mxCell id="87U8tCKJsjDM_NTHOUoC-53" value="+ getters()" style="text;strokeColor=none;fillColor=none;align=left;verticalAlign=top;spacingLeft=4;spacingRight=4;overflow=hidden;rotatable=0;points=[[0,0.5],[1,0.5]];portConstraint=eastwest;labelBorderColor=none;labelBackgroundColor=none;" vertex="1" parent="87U8tCKJsjDM_NTHOUoC-15">
          <mxGeometry y="130" width="230" height="28" as="geometry" />
        </mxCell>
        <mxCell id="87U8tCKJsjDM_NTHOUoC-55" value="+ setters()" style="text;strokeColor=none;fillColor=none;align=left;verticalAlign=top;spacingLeft=4;spacingRight=4;overflow=hidden;rotatable=0;points=[[0,0.5],[1,0.5]];portConstraint=eastwest;labelBorderColor=none;labelBackgroundColor=none;" vertex="1" parent="87U8tCKJsjDM_NTHOUoC-15">
          <mxGeometry y="158" width="230" height="28" as="geometry" />
        </mxCell>
        <mxCell id="87U8tCKJsjDM_NTHOUoC-60" value="Extends" style="endArrow=block;endSize=16;endFill=0;html=1;rounded=0;exitX=0.393;exitY=-0.009;exitDx=0;exitDy=0;exitPerimeter=0;" edge="1" parent="87U8tCKJsjDM_NTHOUoC-15" source="87U8tCKJsjDM_NTHOUoC-35">
          <mxGeometry width="160" relative="1" as="geometry">
            <mxPoint x="-150" y="130" as="sourcePoint" />
            <mxPoint y="10" as="targetPoint" />
            <Array as="points">
              <mxPoint x="-150" y="10" />
            </Array>
          </mxGeometry>
        </mxCell>
        <mxCell id="87U8tCKJsjDM_NTHOUoC-35" value="Member" style="swimlane;fontStyle=1;align=center;verticalAlign=top;childLayout=stackLayout;horizontal=1;startSize=26;horizontalStack=0;resizeParent=1;resizeParentMax=0;resizeLast=0;collapsible=1;marginBottom=0;" vertex="1" parent="1">
          <mxGeometry x="70" y="160" width="230" height="180" as="geometry" />
        </mxCell>
        <mxCell id="87U8tCKJsjDM_NTHOUoC-36" value="- cardNumber : String" style="text;strokeColor=none;fillColor=none;align=left;verticalAlign=top;spacingLeft=4;spacingRight=4;overflow=hidden;rotatable=0;points=[[0,0.5],[1,0.5]];portConstraint=eastwest;" vertex="1" parent="87U8tCKJsjDM_NTHOUoC-35">
          <mxGeometry y="26" width="230" height="22" as="geometry" />
        </mxCell>
        <mxCell id="87U8tCKJsjDM_NTHOUoC-37" value="" style="line;strokeWidth=1;fillColor=none;align=left;verticalAlign=middle;spacingTop=-1;spacingLeft=3;spacingRight=3;rotatable=0;labelPosition=right;points=[];portConstraint=eastwest;" vertex="1" parent="87U8tCKJsjDM_NTHOUoC-35">
          <mxGeometry y="48" width="230" height="8" as="geometry" />
        </mxCell>
        <mxCell id="87U8tCKJsjDM_NTHOUoC-38" value="- isActive : Bool" style="text;strokeColor=none;fillColor=none;align=left;verticalAlign=top;spacingLeft=4;spacingRight=4;overflow=hidden;rotatable=0;points=[[0,0.5],[1,0.5]];portConstraint=eastwest;labelBorderColor=none;labelBackgroundColor=none;" vertex="1" parent="87U8tCKJsjDM_NTHOUoC-35">
          <mxGeometry y="56" width="230" height="26" as="geometry" />
        </mxCell>
        <mxCell id="87U8tCKJsjDM_NTHOUoC-68" value="" style="line;strokeWidth=1;fillColor=none;align=left;verticalAlign=middle;spacingTop=-1;spacingLeft=3;spacingRight=3;rotatable=0;labelPosition=right;points=[];portConstraint=eastwest;labelBackgroundColor=none;labelBorderColor=none;" vertex="1" parent="87U8tCKJsjDM_NTHOUoC-35">
          <mxGeometry y="82" width="230" height="8" as="geometry" />
        </mxCell>
        <mxCell id="87U8tCKJsjDM_NTHOUoC-67" value="- tier : Int" style="text;strokeColor=none;fillColor=none;align=left;verticalAlign=top;spacingLeft=4;spacingRight=4;overflow=hidden;rotatable=0;points=[[0,0.5],[1,0.5]];portConstraint=eastwest;labelBorderColor=none;labelBackgroundColor=none;" vertex="1" parent="87U8tCKJsjDM_NTHOUoC-35">
          <mxGeometry y="90" width="230" height="30" as="geometry" />
        </mxCell>
        <mxCell id="87U8tCKJsjDM_NTHOUoC-71" value="" style="line;strokeWidth=1;fillColor=none;align=left;verticalAlign=middle;spacingTop=-1;spacingLeft=3;spacingRight=3;rotatable=0;labelPosition=right;points=[];portConstraint=eastwest;labelBackgroundColor=none;labelBorderColor=none;" vertex="1" parent="87U8tCKJsjDM_NTHOUoC-35">
          <mxGeometry y="120" width="230" height="10" as="geometry" />
        </mxCell>
        <mxCell id="87U8tCKJsjDM_NTHOUoC-72" value="&lt;span&gt;+ getters()&amp;nbsp;&lt;/span&gt;&lt;br style=&quot;padding: 0px ; margin: 0px&quot;&gt;&lt;br style=&quot;padding: 0px ; margin: 0px&quot;&gt;&lt;span&gt;+ setters()&lt;/span&gt;" style="text;html=1;align=left;verticalAlign=middle;resizable=0;points=[];autosize=1;strokeColor=none;fillColor=none;" vertex="1" parent="87U8tCKJsjDM_NTHOUoC-35">
          <mxGeometry y="130" width="230" height="50" as="geometry" />
        </mxCell>
        <mxCell id="87U8tCKJsjDM_NTHOUoC-61" value="Librarian" style="swimlane;fontStyle=1;align=center;verticalAlign=top;childLayout=stackLayout;horizontal=1;startSize=26;horizontalStack=0;resizeParent=1;resizeParentMax=0;resizeLast=0;collapsible=1;marginBottom=0;" vertex="1" parent="1">
          <mxGeometry x="550" y="160" width="230" height="150" as="geometry" />
        </mxCell>
        <mxCell id="87U8tCKJsjDM_NTHOUoC-62" value="id : String" style="text;strokeColor=none;fillColor=none;align=left;verticalAlign=top;spacingLeft=4;spacingRight=4;overflow=hidden;rotatable=0;points=[[0,0.5],[1,0.5]];portConstraint=eastwest;" vertex="1" parent="87U8tCKJsjDM_NTHOUoC-61">
          <mxGeometry y="26" width="230" height="22" as="geometry" />
        </mxCell>
        <mxCell id="87U8tCKJsjDM_NTHOUoC-63" value="" style="line;strokeWidth=1;fillColor=none;align=left;verticalAlign=middle;spacingTop=-1;spacingLeft=3;spacingRight=3;rotatable=0;labelPosition=right;points=[];portConstraint=eastwest;" vertex="1" parent="87U8tCKJsjDM_NTHOUoC-61">
          <mxGeometry y="48" width="230" height="8" as="geometry" />
        </mxCell>
        <mxCell id="87U8tCKJsjDM_NTHOUoC-64" value="+ addBooks()&#xa;&#xa;+ editBook()&#xa;&#xa;+ deleteBook()" style="text;strokeColor=none;fillColor=none;align=left;verticalAlign=top;spacingLeft=4;spacingRight=4;overflow=hidden;rotatable=0;points=[[0,0.5],[1,0.5]];portConstraint=eastwest;labelBorderColor=none;labelBackgroundColor=none;" vertex="1" parent="87U8tCKJsjDM_NTHOUoC-61">
          <mxGeometry y="56" width="230" height="94" as="geometry" />
        </mxCell>
        <mxCell id="87U8tCKJsjDM_NTHOUoC-65" value="Extends" style="endArrow=block;endSize=16;endFill=0;html=1;rounded=0;exitX=0.565;exitY=0;exitDx=0;exitDy=0;exitPerimeter=0;" edge="1" parent="1" source="87U8tCKJsjDM_NTHOUoC-61">
          <mxGeometry width="160" relative="1" as="geometry">
            <mxPoint x="610.3900000000001" y="120.00199999999995" as="sourcePoint" />
            <mxPoint x="540" y="134" as="targetPoint" />
            <Array as="points">
              <mxPoint x="680" y="134" />
            </Array>
          </mxGeometry>
        </mxCell>
        <mxCell id="87U8tCKJsjDM_NTHOUoC-73" value="Book" style="swimlane;fontStyle=1;align=center;verticalAlign=top;childLayout=stackLayout;horizontal=1;startSize=26;horizontalStack=0;resizeParent=1;resizeParentMax=0;resizeLast=0;collapsible=1;marginBottom=0;labelBackgroundColor=none;labelBorderColor=none;" vertex="1" parent="1">
          <mxGeometry x="110" y="430" width="220" height="220" as="geometry" />
        </mxCell>
        <mxCell id="87U8tCKJsjDM_NTHOUoC-74" value="- PK ISBN : String" style="text;strokeColor=none;fillColor=none;align=left;verticalAlign=top;spacingLeft=4;spacingRight=4;overflow=hidden;rotatable=0;points=[[0,0.5],[1,0.5]];portConstraint=eastwest;labelBackgroundColor=none;labelBorderColor=none;fontStyle=1" vertex="1" parent="87U8tCKJsjDM_NTHOUoC-73">
          <mxGeometry y="26" width="220" height="26" as="geometry" />
        </mxCell>
        <mxCell id="87U8tCKJsjDM_NTHOUoC-78" value="" style="line;strokeWidth=1;fillColor=none;align=left;verticalAlign=middle;spacingTop=-1;spacingLeft=3;spacingRight=3;rotatable=0;labelPosition=right;points=[];portConstraint=eastwest;labelBackgroundColor=none;labelBorderColor=none;" vertex="1" parent="87U8tCKJsjDM_NTHOUoC-73">
          <mxGeometry y="52" width="220" height="8" as="geometry" />
        </mxCell>
        <mxCell id="87U8tCKJsjDM_NTHOUoC-77" value="-  title : String" style="text;strokeColor=none;fillColor=none;align=left;verticalAlign=top;spacingLeft=4;spacingRight=4;overflow=hidden;rotatable=0;points=[[0,0.5],[1,0.5]];portConstraint=eastwest;labelBackgroundColor=none;labelBorderColor=none;fontStyle=0" vertex="1" parent="87U8tCKJsjDM_NTHOUoC-73">
          <mxGeometry y="60" width="220" height="30" as="geometry" />
        </mxCell>
        <mxCell id="87U8tCKJsjDM_NTHOUoC-75" value="" style="line;strokeWidth=1;fillColor=none;align=left;verticalAlign=middle;spacingTop=-1;spacingLeft=3;spacingRight=3;rotatable=0;labelPosition=right;points=[];portConstraint=eastwest;labelBackgroundColor=none;labelBorderColor=none;" vertex="1" parent="87U8tCKJsjDM_NTHOUoC-73">
          <mxGeometry y="90" width="220" height="4" as="geometry" />
        </mxCell>
        <mxCell id="87U8tCKJsjDM_NTHOUoC-82" value="- publishYear : LocalDate" style="text;strokeColor=none;fillColor=none;align=left;verticalAlign=top;spacingLeft=4;spacingRight=4;overflow=hidden;rotatable=0;points=[[0,0.5],[1,0.5]];portConstraint=eastwest;labelBackgroundColor=none;labelBorderColor=none;fontStyle=0" vertex="1" parent="87U8tCKJsjDM_NTHOUoC-73">
          <mxGeometry y="94" width="220" height="30" as="geometry" />
        </mxCell>
        <mxCell id="87U8tCKJsjDM_NTHOUoC-83" value="" style="line;strokeWidth=1;fillColor=none;align=left;verticalAlign=middle;spacingTop=-1;spacingLeft=3;spacingRight=3;rotatable=0;labelPosition=right;points=[];portConstraint=eastwest;labelBackgroundColor=none;labelBorderColor=none;" vertex="1" parent="87U8tCKJsjDM_NTHOUoC-73">
          <mxGeometry y="124" width="220" height="8" as="geometry" />
        </mxCell>
        <mxCell id="87U8tCKJsjDM_NTHOUoC-84" value="- rentalStatus : Bool" style="text;strokeColor=none;fillColor=none;align=left;verticalAlign=top;spacingLeft=4;spacingRight=4;overflow=hidden;rotatable=0;points=[[0,0.5],[1,0.5]];portConstraint=eastwest;labelBackgroundColor=none;labelBorderColor=none;fontStyle=0" vertex="1" parent="87U8tCKJsjDM_NTHOUoC-73">
          <mxGeometry y="132" width="220" height="30" as="geometry" />
        </mxCell>
        <mxCell id="87U8tCKJsjDM_NTHOUoC-85" value="" style="line;strokeWidth=1;fillColor=none;align=left;verticalAlign=middle;spacingTop=-1;spacingLeft=3;spacingRight=3;rotatable=0;labelPosition=right;points=[];portConstraint=eastwest;labelBackgroundColor=none;labelBorderColor=none;" vertex="1" parent="87U8tCKJsjDM_NTHOUoC-73">
          <mxGeometry y="162" width="220" height="8" as="geometry" />
        </mxCell>
        <mxCell id="87U8tCKJsjDM_NTHOUoC-76" value="+ getters()&#xa;&#xa;+ setters()" style="text;strokeColor=none;fillColor=none;align=left;verticalAlign=top;spacingLeft=4;spacingRight=4;overflow=hidden;rotatable=0;points=[[0,0.5],[1,0.5]];portConstraint=eastwest;labelBackgroundColor=none;labelBorderColor=none;" vertex="1" parent="87U8tCKJsjDM_NTHOUoC-73">
          <mxGeometry y="170" width="220" height="50" as="geometry" />
        </mxCell>
        <mxCell id="87U8tCKJsjDM_NTHOUoC-108" value="Relation" style="endArrow=open;html=1;endSize=12;startArrow=diamondThin;startSize=14;startFill=0;edgeStyle=orthogonalEdgeStyle;rounded=0;exitX=0.5;exitY=0;exitDx=0;exitDy=0;" edge="1" parent="1" source="87U8tCKJsjDM_NTHOUoC-73">
          <mxGeometry relative="1" as="geometry">
            <mxPoint x="220" y="410" as="sourcePoint" />
            <mxPoint x="457" y="307" as="targetPoint" />
            <Array as="points">
              <mxPoint x="220" y="360" />
              <mxPoint x="457" y="360" />
              <mxPoint x="457" y="307" />
            </Array>
          </mxGeometry>
        </mxCell>
        <mxCell id="87U8tCKJsjDM_NTHOUoC-109" value="0..n" style="edgeLabel;resizable=0;html=1;align=left;verticalAlign=top;labelBackgroundColor=none;labelBorderColor=none;" connectable="0" vertex="1" parent="87U8tCKJsjDM_NTHOUoC-108">
          <mxGeometry x="-1" relative="1" as="geometry">
            <mxPoint x="10" y="-20" as="offset" />
          </mxGeometry>
        </mxCell>
        <mxCell id="87U8tCKJsjDM_NTHOUoC-110" value="1" style="edgeLabel;resizable=0;html=1;align=right;verticalAlign=top;labelBackgroundColor=none;labelBorderColor=none;" connectable="0" vertex="1" parent="87U8tCKJsjDM_NTHOUoC-108">
          <mxGeometry x="1" relative="1" as="geometry">
            <mxPoint y="13" as="offset" />
          </mxGeometry>
        </mxCell>
        <mxCell id="87U8tCKJsjDM_NTHOUoC-111" value="Category" style="swimlane;fontStyle=1;align=center;verticalAlign=top;childLayout=stackLayout;horizontal=1;startSize=26;horizontalStack=0;resizeParent=1;resizeParentMax=0;resizeLast=0;collapsible=1;marginBottom=0;labelBackgroundColor=none;labelBorderColor=none;" vertex="1" parent="1">
          <mxGeometry x="570" y="430" width="180" height="168" as="geometry" />
        </mxCell>
        <mxCell id="87U8tCKJsjDM_NTHOUoC-112" value="-  PK id : String" style="text;strokeColor=none;fillColor=none;align=left;verticalAlign=top;spacingLeft=4;spacingRight=4;overflow=hidden;rotatable=0;points=[[0,0.5],[1,0.5]];portConstraint=eastwest;labelBackgroundColor=none;labelBorderColor=none;fontStyle=1" vertex="1" parent="87U8tCKJsjDM_NTHOUoC-111">
          <mxGeometry y="26" width="180" height="26" as="geometry" />
        </mxCell>
        <mxCell id="87U8tCKJsjDM_NTHOUoC-113" value="" style="line;strokeWidth=1;fillColor=none;align=left;verticalAlign=middle;spacingTop=-1;spacingLeft=3;spacingRight=3;rotatable=0;labelPosition=right;points=[];portConstraint=eastwest;labelBackgroundColor=none;labelBorderColor=none;" vertex="1" parent="87U8tCKJsjDM_NTHOUoC-111">
          <mxGeometry y="52" width="180" height="10" as="geometry" />
        </mxCell>
        <mxCell id="87U8tCKJsjDM_NTHOUoC-125" value="- name : String" style="text;strokeColor=none;fillColor=none;spacingLeft=4;spacingRight=4;overflow=hidden;rotatable=0;points=[[0,0.5],[1,0.5]];portConstraint=eastwest;fontSize=12;labelBackgroundColor=none;labelBorderColor=none;" vertex="1" parent="87U8tCKJsjDM_NTHOUoC-111">
          <mxGeometry y="62" width="180" height="30" as="geometry" />
        </mxCell>
        <mxCell id="87U8tCKJsjDM_NTHOUoC-124" value="" style="line;strokeWidth=1;fillColor=none;align=left;verticalAlign=middle;spacingTop=-1;spacingLeft=3;spacingRight=3;rotatable=0;labelPosition=right;points=[];portConstraint=eastwest;labelBackgroundColor=none;labelBorderColor=none;" vertex="1" parent="87U8tCKJsjDM_NTHOUoC-111">
          <mxGeometry y="92" width="180" height="8" as="geometry" />
        </mxCell>
        <mxCell id="87U8tCKJsjDM_NTHOUoC-114" value="+ getters()&#xa;&#xa;+ setters()" style="text;strokeColor=none;fillColor=none;align=left;verticalAlign=top;spacingLeft=4;spacingRight=4;overflow=hidden;rotatable=0;points=[[0,0.5],[1,0.5]];portConstraint=eastwest;labelBackgroundColor=none;labelBorderColor=none;whiteSpace=wrap;" vertex="1" parent="87U8tCKJsjDM_NTHOUoC-111">
          <mxGeometry y="100" width="180" height="68" as="geometry" />
        </mxCell>
        <mxCell id="87U8tCKJsjDM_NTHOUoC-115" value="name" style="endArrow=block;endFill=1;html=1;edgeStyle=orthogonalEdgeStyle;align=left;verticalAlign=top;rounded=0;entryX=0.007;entryY=0.141;entryDx=0;entryDy=0;entryPerimeter=0;" edge="1" parent="1" target="87U8tCKJsjDM_NTHOUoC-111">
          <mxGeometry x="-0.718" relative="1" as="geometry">
            <mxPoint x="330" y="470" as="sourcePoint" />
            <mxPoint x="490" y="470" as="targetPoint" />
            <mxPoint as="offset" />
          </mxGeometry>
        </mxCell>
        <mxCell id="87U8tCKJsjDM_NTHOUoC-116" value="1" style="edgeLabel;resizable=0;html=1;align=left;verticalAlign=bottom;labelBackgroundColor=none;labelBorderColor=none;" connectable="0" vertex="1" parent="87U8tCKJsjDM_NTHOUoC-115">
          <mxGeometry x="-1" relative="1" as="geometry" />
        </mxCell>
      </root>
    </mxGraphModel>
  </diagram>
</mxfile>
